<?xml version="1.0" encoding="utf-8"?>
<!-- Generator: Adobe Illustrator 17.0.0, SVG Export Plug-In . SVG Version: 6.00 Build 0)  -->
<!DOCTYPE svg PUBLIC "-//W3C//DTD SVG 1.1//EN" "http://www.w3.org/Graphics/SVG/1.1/DTD/svg11.dtd">
<svg version="1.1" id="Layer_1" xmlns="http://www.w3.org/2000/svg" xmlns:xlink="http://www.w3.org/1999/xlink" x="0px" y="0px"
	 width="100px" height="50px" viewBox="0 0 100 50" enable-background="new 0 0 100 50" xml:space="preserve">
<path fill-rule="evenodd" clip-rule="evenodd" d="M46.108,46.218c0-0.229-0.199-0.418-0.447-0.418c-0.246,0-0.442,0.188-0.442,0.418
	v1.159c0,0.23,0.196,0.417,0.442,0.417C46.334,47.794,46.108,46.633,46.108,46.218 M45.661,35.958v-2.143
	c0-0.337-0.265-0.614-0.595-0.614c-0.328,0-0.598,0.277-0.598,0.614v2.143c0,0.338,0.27,0.613,0.598,0.613
	C45.396,36.571,45.661,36.296,45.661,35.958z M45.728,41.383v-2.138c0-0.341-0.271-0.615-0.6-0.615c-0.333,0-0.6,0.274-0.6,0.615
	v2.138c0,0.34,0.267,0.619,0.6,0.619C45.457,42.002,45.728,41.723,45.728,41.383z M55.094,47.316v-1.159
	c0-0.227-0.2-0.412-0.442-0.412c-0.25,0-0.45,0.186-0.45,0.412v1.159c0,0.235,0.196,0.419,0.45,0.419
	C54.894,47.735,55.094,47.546,55.094,47.316z M55.842,35.926v-2.141c0-0.338-0.266-0.614-0.594-0.614c-0.331,0-0.6,0.276-0.6,0.614
	v2.141c0,0.338,0.269,0.617,0.6,0.617C55.576,36.543,55.842,36.264,55.842,35.926z M55.906,41.355v-2.143
	c0-0.337-0.268-0.613-0.597-0.613c-0.333,0-0.602,0.276-0.602,0.613v2.143c0,0.338,0.269,0.613,0.602,0.613
	C55.639,41.969,55.906,41.693,55.906,41.355z M87.339,26.25c0,0.562,0.461,1.019,1.023,1.019c0.561,0,1.016-0.457,1.016-1.019
	c0-0.274-0.108-0.527-0.298-0.718c-0.191-0.195-0.447-0.305-0.718-0.305C87.8,25.228,87.339,25.685,87.339,26.25z M94.361,28.717
	l-0.118-0.097l-0.113,0.097l-1.741,1.471h3.808L94.361,28.717z M83.165,28.62l-1.858,1.567h3.809L83.165,28.62z M90.634,29.812
	c-0.144-0.43-0.938-1.226-2.232-1.205c-1.325,0.014-1.99,1.139-2.017,1.187l-0.161,0.277l0.321-0.002l3.914-0.018h0.248
	L90.634,29.812z M90.959,31.924l0.087,15.003h-3.987L86.97,31.928L90.959,31.924z M77.247,30.658l-18.764-0.111l-0.003-0.346
	l3.443-4.984l23.442,0.136l-0.276,0.225l0.318,0.207c0.011,0.006,1.073,0.71,1.057,1.779c-0.015,1.026-0.777,1.106-1.012,1.106
	c-0.555,0-0.845-0.228-0.845-0.683c0-0.174,0.069-0.257,0.115-0.297c0.167-0.157,0.493-0.17,0.604-0.162l0.481,0.039
	c0.002,0-0.218-0.434-0.218-0.434c-0.177-0.361-0.438-0.587-0.771-0.686c-0.61-0.176-1.224,0.196-1.252,0.21
	c-0.005,0-5.974,3.781-5.974,3.781L77.247,30.658z M77.709,31.731l1.625,0.009l0.077,15.367l-1.639-0.012L77.709,31.731z
	 M74.091,31.71l3.252,0.02l0.056,15.365l-3.25-0.02L74.091,31.71z M70.29,31.69l3.429,0.018l0.063,15.366l-3.432-0.021L70.29,31.69z
	 M67.162,31.671l2.76,0.016l0.059,15.364l-2.761-0.017L67.162,31.671z M63.816,31.652l2.974,0.018l0.065,15.363l-2.981-0.018
	L63.816,31.652z M60.904,31.636l2.542,0.015l0.062,15.363L60.965,47L60.904,31.636z M84.331,45.704c0,0.303,0.198,0.544,0.443,0.544
	c0.246,0,0.446-0.245,0.446-0.544v-1.791c0-0.308-0.195-0.546-0.446-0.546c-0.245,0-0.443,0.238-0.443,0.546V45.704z M68.323,45.699
	c0,0.308,0.197,0.549,0.445,0.549c0.249,0,0.447-0.241,0.447-0.549v-1.786c0-0.308-0.198-0.546-0.447-0.546
	c-0.248,0-0.445,0.238-0.445,0.546V45.699z M68.323,41.291c0,0.301,0.197,0.54,0.445,0.54c0.249,0,0.447-0.239,0.447-0.54v-1.795
	c0-0.308-0.198-0.547-0.447-0.547c-0.248,0-0.445,0.239-0.445,0.547V41.291z M68.323,36.132c0,0.311,0.197,0.55,0.445,0.55
	c0.249,0,0.447-0.239,0.447-0.55v-1.791c0-0.303-0.198-0.541-0.447-0.541c-0.248,0-0.445,0.238-0.445,0.541V36.132z M71.544,45.733
	c0,0.301,0.198,0.55,0.443,0.55c0.248,0,0.443-0.249,0.443-0.55v-1.789c0-0.307-0.195-0.545-0.443-0.545
	c-0.249,0-0.443,0.238-0.443,0.545V45.733z M71.544,41.318c0,0.309,0.194,0.545,0.443,0.545c0.248,0,0.443-0.236,0.443-0.545v-1.791
	c0-0.307-0.195-0.545-0.443-0.545c-0.249,0-0.443,0.238-0.443,0.545V41.318z M71.544,36.169c0,0.299,0.198,0.541,0.443,0.541
	c0.248,0,0.443-0.242,0.443-0.541v-1.793c0-0.301-0.195-0.546-0.443-0.546c-0.249,0-0.443,0.245-0.443,0.546V36.169z M75.223,45.733
	c0,0.311,0.198,0.55,0.448,0.55c0.239,0,0.438-0.249,0.438-0.55v-1.789c0-0.307-0.188-0.545-0.438-0.545s-0.448,0.238-0.448,0.545
	V45.733z M75.223,41.318c0,0.309,0.198,0.545,0.448,0.545c0.239,0,0.438-0.247,0.438-0.545v-1.791c0-0.307-0.188-0.545-0.438-0.545
	s-0.448,0.238-0.448,0.545V41.318z M75.223,36.169c0,0.305,0.198,0.541,0.448,0.541c0.239,0,0.438-0.242,0.438-0.541v-1.793
	c0-0.301-0.199-0.546-0.438-0.546c-0.25,0-0.448,0.245-0.448,0.546V36.169z M78.166,45.733c0,0.301,0.203,0.55,0.446,0.55
	c0.252,0,0.446-0.239,0.446-0.55v-1.789c0-0.307-0.194-0.545-0.446-0.545c-0.243,0-0.446,0.243-0.446,0.545V45.733z M78.166,41.318
	c0,0.298,0.203,0.545,0.446,0.545c0.252,0,0.446-0.236,0.446-0.545v-1.791c0-0.307-0.194-0.545-0.446-0.545
	c-0.243,0-0.446,0.242-0.446,0.545V41.318z M78.166,36.169c0,0.299,0.203,0.541,0.446,0.541c0.252,0,0.446-0.236,0.446-0.541v-1.793
	c0-0.301-0.194-0.546-0.446-0.546c-0.243,0-0.446,0.245-0.446,0.546V36.169z M82.862,45.704c0,0.303,0.192,0.544,0.441,0.544
	c0.251,0,0.446-0.241,0.446-0.544v-1.791c0-0.308-0.195-0.546-0.446-0.546c-0.249,0-0.441,0.238-0.441,0.546V45.704z M84.331,41.291
	c0,0.299,0.199,0.54,0.443,0.54c0.246,0,0.446-0.241,0.446-0.54v-1.795c0-0.304-0.2-0.547-0.446-0.547
	c-0.245,0-0.443,0.243-0.443,0.547V41.291z M82.862,41.291c0,0.303,0.192,0.54,0.441,0.54c0.251,0,0.446-0.237,0.446-0.54v-1.795
	c0-0.304-0.195-0.547-0.446-0.547c-0.249,0-0.441,0.243-0.441,0.547V41.291z M84.331,36.137c0,0.302,0.199,0.545,0.443,0.545
	c0.246,0,0.446-0.243,0.446-0.545v-1.796c0-0.295-0.2-0.541-0.446-0.541c-0.245,0-0.443,0.239-0.443,0.541V36.137z M82.862,36.137
	c0,0.306,0.192,0.545,0.441,0.545c0.251,0,0.446-0.239,0.446-0.545v-1.796c0-0.302-0.195-0.541-0.446-0.541
	c-0.249,0-0.441,0.239-0.441,0.541V36.137z M89.424,45.764c0,0.308,0.191,0.546,0.444,0.546c0.245,0,0.446-0.238,0.446-0.546v-1.789
	c0-0.305-0.201-0.547-0.446-0.547c-0.253,0-0.444,0.242-0.444,0.547V45.764z M87.951,45.764c0,0.308,0.195,0.546,0.443,0.546
	c0.25,0,0.446-0.238,0.446-0.546v-1.789c0-0.305-0.196-0.547-0.446-0.547c-0.248,0-0.443,0.242-0.443,0.547V45.764z M89.424,41.346
	c0,0.313,0.191,0.55,0.444,0.55c0.245,0,0.446-0.237,0.446-0.55v-1.787c0-0.307-0.201-0.549-0.446-0.549
	c-0.253,0-0.444,0.242-0.444,0.549V41.346z M87.951,41.346c0,0.313,0.195,0.55,0.443,0.55c0.25,0,0.446-0.237,0.446-0.55v-1.787
	c0-0.307-0.196-0.549-0.446-0.549c-0.248,0-0.443,0.242-0.443,0.549V41.346z M89.424,36.196c0,0.304,0.191,0.547,0.444,0.547
	c0.245,0,0.446-0.243,0.446-0.547v-1.794c0-0.302-0.201-0.542-0.446-0.542c-0.253,0-0.444,0.24-0.444,0.542V36.196z M87.951,36.196
	c0,0.304,0.195,0.547,0.443,0.547c0.25,0,0.446-0.243,0.446-0.547v-1.794c0-0.302-0.196-0.542-0.446-0.542
	c-0.248,0-0.443,0.24-0.443,0.542V36.196z M93.838,45.764c0,0.308,0.2,0.546,0.444,0.546c0.25,0,0.445-0.238,0.445-0.546v-1.789
	c0-0.305-0.195-0.547-0.445-0.547c-0.244,0-0.444,0.242-0.444,0.547V45.764z M92.371,45.764c0,0.308,0.189,0.546,0.442,0.546
	c0.248,0,0.445-0.238,0.445-0.546v-1.789c0-0.305-0.197-0.547-0.445-0.547c-0.253,0-0.442,0.242-0.442,0.547V45.764z M93.838,41.346
	c0,0.304,0.202,0.55,0.444,0.55c0.25,0,0.445-0.237,0.445-0.55v-1.787c0-0.307-0.195-0.549-0.445-0.549
	c-0.242,0-0.444,0.247-0.444,0.549V41.346z M92.371,41.346c0,0.313,0.189,0.55,0.442,0.55c0.248,0,0.445-0.237,0.445-0.55v-1.787
	c0-0.307-0.197-0.549-0.445-0.549c-0.253,0-0.442,0.242-0.442,0.549V41.346z M93.838,36.196c0,0.304,0.2,0.547,0.444,0.547
	c0.25,0,0.445-0.243,0.445-0.547v-1.794c0-0.302-0.195-0.542-0.445-0.542c-0.244,0-0.444,0.24-0.444,0.542V36.196z M92.371,36.196
	c0,0.304,0.189,0.547,0.442,0.547c0.248,0,0.445-0.243,0.445-0.547v-1.794c0-0.302-0.197-0.542-0.445-0.542
	c-0.253,0-0.442,0.24-0.442,0.542V36.196z M61.701,45.642c0,0.307,0.192,0.545,0.442,0.545s0.447-0.238,0.447-0.545v-1.793
	c0-0.305-0.197-0.543-0.447-0.543s-0.442,0.238-0.442,0.543V45.642z M61.701,41.228c0,0.302,0.192,0.542,0.442,0.542
	s0.447-0.24,0.447-0.542v-1.791c0-0.308-0.197-0.552-0.447-0.552s-0.442,0.244-0.442,0.552V41.228z M61.701,36.072
	c0,0.306,0.192,0.548,0.442,0.548s0.447-0.242,0.447-0.548v-1.788c0-0.308-0.197-0.551-0.447-0.551s-0.442,0.243-0.442,0.551V36.072
	z M59.124,45.642c0,0.301,0.201,0.545,0.445,0.545c0.25,0,0.445-0.238,0.445-0.545v-1.793c0-0.305-0.195-0.543-0.445-0.543
	c-0.244,0-0.445,0.243-0.445,0.543V45.642z M59.124,41.228c0,0.302,0.197,0.542,0.445,0.542c0.25,0,0.445-0.24,0.445-0.542v-1.791
	c0-0.308-0.195-0.552-0.445-0.552c-0.248,0-0.445,0.244-0.445,0.552V41.228z M59.124,36.072c0,0.302,0.201,0.548,0.445,0.548
	c0.25,0,0.445-0.242,0.445-0.548v-1.788c0-0.308-0.195-0.551-0.445-0.551c-0.244,0-0.445,0.246-0.445,0.551V36.072z M65.013,45.699
	c0,0.308,0.195,0.549,0.445,0.549c0.246,0,0.443-0.241,0.443-0.549v-1.786c0-0.308-0.197-0.546-0.443-0.546
	c-0.25,0-0.445,0.238-0.445,0.546V45.699z M65.013,41.291c0,0.301,0.195,0.54,0.445,0.54c0.246,0,0.443-0.239,0.443-0.54v-1.795
	c0-0.308-0.197-0.547-0.443-0.547c-0.25,0-0.445,0.239-0.445,0.547V41.291z M95.567,32.739c0-0.353,0.179-0.668,0.386-0.668h0.953
	c0.183,0,0.381,0.273,0.381,0.668c0,0.392-0.198,0.669-0.381,0.669h-0.953C95.768,33.408,95.567,33.139,95.567,32.739z
	 M95.567,34.441c0-0.354,0.179-0.667,0.386-0.667h0.953c0.183,0,0.381,0.274,0.381,0.667c0,0.394-0.198,0.668-0.381,0.668h-0.953
	C95.746,35.109,95.567,34.798,95.567,34.441z M95.572,36.049c0.031-0.312,0.195-0.56,0.381-0.56h0.953
	c0.183,0,0.381,0.271,0.381,0.67c0,0.391-0.198,0.663-0.381,0.663h-0.953c-0.185,0-0.347-0.249-0.38-0.552L95.572,36.049z
	 M95.579,37.703c0.042-0.286,0.199-0.514,0.374-0.514h0.953c0.183,0,0.381,0.277,0.381,0.67c0,0.393-0.198,0.666-0.381,0.666h-0.953
	c-0.174,0-0.329-0.22-0.373-0.505L95.579,37.703z M95.586,39.582c0-0.394,0.209-0.667,0.391-0.667h0.945
	c0.187,0,0.392,0.273,0.392,0.667c0,0.394-0.205,0.665-0.392,0.665h-0.945C95.795,40.247,95.586,39.976,95.586,39.582z
	 M95.59,41.178c0.034-0.335,0.222-0.56,0.387-0.56h0.945c0.187,0,0.392,0.274,0.392,0.667c0,0.392-0.205,0.666-0.392,0.666h-0.945
	c-0.164,0-0.351-0.226-0.386-0.556L95.59,41.178z M95.624,46.449c0-0.396,0.196-0.666,0.372-0.666h0.928
	c0.18,0,0.377,0.271,0.377,0.666c0,0.392-0.197,0.668-0.377,0.668h-0.928C95.82,47.117,95.624,46.841,95.624,46.449z M95.624,47.961
	c0-0.249,0.174-0.458,0.387-0.458h0.945c0.216,0,0.391,0.209,0.391,0.458c0,0.25-0.175,0.454-0.391,0.454h-0.945
	C95.798,48.415,95.624,48.211,95.624,47.961z M95.601,43.011c0-0.393,0.201-0.67,0.38-0.67h0.938c0.181,0,0.383,0.277,0.383,0.67
	c0,0.394-0.202,0.666-0.383,0.666H95.98C95.802,43.677,95.601,43.404,95.601,43.011z M95.603,44.619
	c0.027-0.342,0.214-0.572,0.378-0.572h0.938c0.181,0,0.383,0.273,0.383,0.664c0,0.395-0.202,0.666-0.383,0.666H95.98
	c-0.164,0-0.349-0.23-0.378-0.574v-0.004V44.619z M95.232,44.711c0,0.047,0,0.094,0.004,0.141l0.008,2.075h-3.462l-0.088-15.005
	l3.497-0.007l0.008,2.444v0.027v0.108v0.026l0.007,1.49c-0.006,0.047-0.007,0.098-0.007,0.147c0,0.054,0.002,0.104,0.008,0.153
	l0.004,1.35c-0.007,0.063-0.012,0.13-0.012,0.197c0,0.069,0.005,0.135,0.013,0.201l0.013,3.126l-0.003,0.099l0.003,0.103
	l0.012,3.191C95.232,44.621,95.232,44.666,95.232,44.711z M95.586,31.453c0-0.09,0.209-0.232,0.514-0.232h0.572
	c0.308,0,0.512,0.143,0.512,0.232c0,0.038-0.043,0.091-0.115,0.132c-0.103,0.065-0.245,0.097-0.396,0.097H96.1
	C95.795,31.682,95.586,31.544,95.586,31.453z M80.107,32.739c0-0.395,0.207-0.668,0.388-0.668h0.954c0.15,0,0.313,0.184,0.367,0.468
	v0.388c-0.051,0.288-0.217,0.481-0.367,0.481h-0.954C80.314,33.408,80.107,33.131,80.107,32.739z M80.107,34.441
	c0-0.393,0.207-0.667,0.388-0.667h0.954c0.155,0,0.325,0.198,0.372,0.503l0.001,0.319c-0.043,0.306-0.217,0.513-0.373,0.513h-0.954
	C80.314,35.109,80.107,34.835,80.107,34.441z M80.107,36.159c0-0.398,0.207-0.67,0.388-0.67h0.954c0.164,0,0.342,0.215,0.379,0.545
	l0.001,0.236c-0.035,0.33-0.216,0.552-0.38,0.552h-0.954C80.314,36.822,80.107,36.55,80.107,36.159z M80.107,37.859
	c0-0.393,0.207-0.67,0.388-0.67h0.954c0.176,0,0.369,0.256,0.384,0.625l0.001,0.062v0.02l-0.001,0.003
	c-0.012,0.373-0.207,0.627-0.384,0.627h-0.954C80.314,38.525,80.107,38.252,80.107,37.859z M80.131,39.582
	c0-0.394,0.204-0.667,0.388-0.667h0.95c0.152,0,0.315,0.184,0.37,0.469l0.002,0.384c-0.053,0.291-0.219,0.479-0.372,0.479h-0.95
	C80.335,40.247,80.131,39.976,80.131,39.582z M80.131,41.285c0-0.393,0.204-0.667,0.388-0.667h0.95c0.157,0,0.329,0.198,0.377,0.502
	v0.319c-0.046,0.307-0.219,0.512-0.377,0.512h-0.95C80.335,41.951,80.131,41.677,80.131,41.285z M82.214,41.477
	c0.008-0.062,0.014-0.126,0.014-0.191c0-0.07-0.006-0.142-0.016-0.208l-0.004-1.267c0.013-0.073,0.02-0.147,0.02-0.228
	c0-0.081-0.008-0.162-0.021-0.239l-0.005-1.432v-0.032l0.001-0.019l-0.001-0.027v-0.026l-0.007-1.521
	c0.005-0.043,0.008-0.083,0.008-0.125c0-0.047-0.003-0.096-0.01-0.14l-0.004-1.398c0.008-0.058,0.014-0.116,0.014-0.18
	c0-0.063-0.006-0.13-0.016-0.19l-0.004-1.29c0.01-0.071,0.02-0.145,0.02-0.222c0-0.077-0.01-0.155-0.021-0.229l-0.002-0.573
	l4.056-0.008l0.087,14.997h-4.091L82.214,41.477z M80.168,46.449c0-0.396,0.195-0.666,0.373-0.666h0.928
	c0.178,0,0.377,0.271,0.377,0.666c0,0.392-0.199,0.668-0.377,0.668h-0.928C80.363,47.117,80.168,46.841,80.168,46.449z
	 M80.168,47.961c0-0.249,0.175-0.458,0.388-0.458h0.945c0.086,0,0.163,0.031,0.228,0.088v0.07h0.066
	c0.032,0.045,0.056,0.092,0.072,0.146l0.001,0.299c-0.053,0.179-0.195,0.31-0.367,0.31h-0.945
	C80.343,48.415,80.168,48.211,80.168,47.961z M82.237,48.147c0.013-0.061,0.023-0.12,0.023-0.187c0-0.067-0.01-0.133-0.023-0.195
	l-0.001-0.104h13.01l0.004,0.905l-13.012-0.092L82.237,48.147z M80.142,43.011c0-0.393,0.205-0.67,0.382-0.67h0.937
	c0.204,0,0.386,0.313,0.386,0.67c0,0.353-0.182,0.666-0.386,0.666h-0.937C80.347,43.677,80.142,43.404,80.142,43.011z
	 M80.142,44.711c0-0.391,0.205-0.664,0.382-0.664h0.937c0.204,0,0.386,0.31,0.386,0.664c0,0.358-0.182,0.666-0.386,0.666h-0.937
	C80.347,45.377,80.142,45.105,80.142,44.711z M80.131,31.453c0-0.09,0.204-0.232,0.513-0.232h0.569c0.309,0,0.516,0.143,0.516,0.232
	c0,0.038-0.047,0.093-0.116,0.132c-0.102,0.065-0.249,0.097-0.399,0.097h-0.569C80.335,31.682,80.131,31.544,80.131,31.453z
	 M95.188,30.988l0.002,0.558L82.179,31.57l-0.002-0.572C81.167,31.012,93.888,30.985,95.188,30.988z M65.013,36.132
	c0,0.311,0.195,0.55,0.445,0.55c0.246,0,0.443-0.239,0.443-0.55v-1.791c0-0.303-0.197-0.541-0.443-0.541
	c-0.25,0-0.445,0.238-0.445,0.541V36.132z M66.646,29.679c0.071,0.023,0.145,0.037,0.221,0.037c0.078,0,0.154-0.015,0.225-0.037
	h1.482l-0.01-0.279l-0.024-1.338c-0.029-0.459-0.419-1.299-1.68-1.289c-1.276,0.011-1.663,1.032-1.688,1.571
	c0,0.015,0.008,1.065,0.008,1.065l0.002,0.269H66.646z M66.155,29.03c0,0.035,0.004,0.066,0.01,0.099l-0.438,0.011l-0.009-0.785
	c0.004-0.089,0.093-1.026,1.147-1.037c1.065-0.008,1.127,0.735,1.129,0.767c-0.002-0.014,0.015,1.045,0.015,1.045h-0.436
	c0.005-0.032,0.007-0.064,0.007-0.099v-0.854c0-0.376-0.321-0.684-0.713-0.684c-0.391,0-0.711,0.308-0.711,0.684V29.03z
	 M76.214,29.679c0.068,0.023,0.146,0.037,0.223,0.037c0.079,0,0.151-0.015,0.22-0.037h1.483l-0.005-0.279l-0.032-1.338
	c-0.028-0.459-0.414-1.299-1.674-1.289c-1.275,0.011-1.667,1.032-1.694,1.567c0,0.019,0.015,1.069,0.015,1.069l0.004,0.269H76.214z
	 M12.631,26.201c0-0.271-0.106-0.528-0.297-0.721c-0.194-0.193-0.45-0.298-0.721-0.298c-0.563,0-1.018,0.46-1.018,1.019
	c0,0.561,0.455,1.017,1.018,1.017C12.174,27.218,12.631,26.763,12.631,26.201z M7.083,30.146h0.501l-0.386-0.325l-1.471-1.248
	l-1.548,1.244l-0.404,0.329H7.083z M18.665,30.146l-1.857-1.573l-1.952,1.573H18.665z M13.75,30.023l-0.162-0.278
	c-0.028-0.048-0.694-1.167-2.018-1.187c-1.295-0.021-2.09,0.775-2.231,1.207l-0.078,0.239C10.757,30.005,12.253,30.023,13.75,30.023
	z M8.924,46.878l0.09-15.045l3.984,0.026l-0.087,15.018H8.924z M41.491,30.504l-18.76,0.113l-0.355-0.226l-5.971-3.774
	c-0.031-0.023-0.645-0.391-1.254-0.216c-0.339,0.104-0.594,0.333-0.773,0.684l-0.221,0.439l0.489-0.042
	c0.107-0.009,0.432,0.003,0.597,0.157c0.05,0.046,0.113,0.128,0.113,0.303c0,0.456-0.28,0.684-0.838,0.684
	c-0.233,0-0.997-0.079-1.011-1.105c-0.017-1.078,1.043-1.774,1.052-1.781l0.321-0.203l-0.284-0.23l23.464-0.138l3.432,4.996
	L41.491,30.504z M36.522,31.603l2.545-0.017L39.01,46.955l-2.547,0.016L36.522,31.603z M33.178,31.622l2.975-0.017l-0.058,15.367
	l-2.974,0.019L33.178,31.622z M30.053,31.64l2.759-0.016l-0.061,15.368l-2.761,0.017L30.053,31.64z M26.249,31.663l3.433-0.021
	l-0.057,15.368l-3.436,0.021L26.249,31.663z M22.626,31.687l3.253-0.021l-0.061,15.368l-3.253,0.019L22.626,31.687z M20.642,31.697
	l1.617-0.01l-0.058,15.367l-1.642,0.011L20.642,31.697z M15.64,45.659v-1.794c0-0.305-0.199-0.545-0.446-0.545
	c-0.251,0-0.445,0.24-0.445,0.545v1.794c0,0.302,0.202,0.548,0.445,0.548C15.44,46.207,15.64,45.964,15.64,45.659z M31.647,45.656
	v-1.791c0-0.305-0.194-0.545-0.445-0.545c-0.248,0-0.442,0.24-0.442,0.545v1.791c0,0.305,0.195,0.548,0.442,0.548
	C31.453,46.204,31.647,45.961,31.647,45.656z M31.647,41.237v-1.789c0-0.305-0.194-0.544-0.445-0.544
	c-0.248,0-0.442,0.239-0.442,0.544v1.789c0,0.312,0.195,0.549,0.442,0.549C31.453,41.786,31.647,41.549,31.647,41.237z
	 M31.647,36.085v-1.787c0-0.307-0.194-0.548-0.445-0.548c-0.248,0-0.442,0.241-0.442,0.548v1.787c0,0.308,0.195,0.552,0.442,0.552
	C31.453,36.637,31.647,36.393,31.647,36.085z M28.424,45.687v-1.787c0-0.308-0.192-0.545-0.442-0.545
	c-0.251,0-0.446,0.237-0.446,0.545v1.787c0,0.302,0.2,0.547,0.446,0.547C28.227,46.233,28.424,45.988,28.424,45.687z M28.424,41.27
	V39.48c0-0.307-0.192-0.545-0.442-0.545c-0.251,0-0.446,0.238-0.446,0.545v1.789c0,0.31,0.195,0.549,0.446,0.549
	C28.227,41.818,28.424,41.57,28.424,41.27z M28.424,36.118v-1.791c0-0.307-0.192-0.543-0.442-0.543
	c-0.251,0-0.446,0.236-0.446,0.543v1.791c0,0.303,0.2,0.549,0.446,0.549C28.227,36.667,28.424,36.421,28.424,36.118z M24.748,45.687
	v-1.787c0-0.308-0.195-0.545-0.447-0.545c-0.247,0-0.445,0.237-0.445,0.545v1.787c0,0.304,0.198,0.547,0.445,0.547
	C24.548,46.233,24.748,45.988,24.748,45.687z M24.748,41.27V39.48c0-0.307-0.195-0.545-0.447-0.545
	c-0.247,0-0.445,0.238-0.445,0.545v1.789c0,0.31,0.198,0.549,0.445,0.549C24.548,41.818,24.748,41.57,24.748,41.27z M24.748,36.118
	v-1.791c0-0.307-0.195-0.543-0.447-0.543c-0.247,0-0.445,0.236-0.445,0.543v1.791c0,0.308,0.198,0.549,0.445,0.549
	C24.548,36.667,24.748,36.421,24.748,36.118z M21.803,45.687v-1.787c0-0.308-0.196-0.545-0.447-0.545
	c-0.249,0-0.444,0.237-0.444,0.545v1.787c0,0.302,0.2,0.547,0.444,0.547C21.601,46.233,21.803,45.988,21.803,45.687z M21.803,41.27
	V39.48c0-0.307-0.196-0.545-0.447-0.545c-0.249,0-0.444,0.238-0.444,0.545v1.789c0,0.31,0.196,0.549,0.444,0.549
	C21.607,41.818,21.803,41.579,21.803,41.27z M21.803,36.118v-1.791c0-0.307-0.196-0.543-0.447-0.543
	c-0.249,0-0.444,0.236-0.444,0.543v1.791c0,0.303,0.2,0.549,0.444,0.549C21.601,36.667,21.803,36.421,21.803,36.118z M17.108,45.659
	v-1.794c0-0.305-0.195-0.545-0.444-0.545c-0.248,0-0.44,0.24-0.44,0.545v1.794c0,0.305,0.192,0.548,0.44,0.548
	C16.914,46.207,17.108,45.964,17.108,45.659z M15.64,41.237v-1.789c0-0.305-0.199-0.544-0.446-0.544
	c-0.251,0-0.445,0.239-0.445,0.544v1.789c0,0.312,0.195,0.549,0.445,0.549C15.44,41.786,15.64,41.549,15.64,41.237z M17.108,41.237
	v-1.789c0-0.305-0.195-0.544-0.444-0.544c-0.248,0-0.44,0.239-0.44,0.544v1.789c0,0.312,0.192,0.549,0.44,0.549
	C16.914,41.786,17.108,41.549,17.108,41.237z M15.64,36.091v-1.793c0-0.304-0.199-0.544-0.446-0.544
	c-0.251,0-0.445,0.24-0.445,0.544v1.793c0,0.3,0.202,0.546,0.445,0.546C15.44,36.637,15.64,36.393,15.64,36.091z M17.108,36.091
	v-1.793c0-0.304-0.195-0.544-0.444-0.544c-0.248,0-0.44,0.24-0.44,0.544v1.793c0,0.302,0.192,0.546,0.44,0.546
	C16.914,36.637,17.108,36.393,17.108,36.091z M10.545,45.718v-1.791c0-0.303-0.192-0.545-0.441-0.545
	c-0.25,0-0.442,0.242-0.442,0.545v1.791c0,0.307,0.193,0.545,0.442,0.545C10.352,46.263,10.545,46.024,10.545,45.718z
	 M12.017,45.718v-1.791c0-0.303-0.194-0.545-0.443-0.545c-0.249,0-0.444,0.242-0.444,0.545v1.791c0,0.307,0.195,0.545,0.444,0.545
	C11.823,46.263,12.017,46.024,12.017,45.718z M10.545,41.303v-1.789c0-0.308-0.192-0.546-0.441-0.546
	c-0.25,0-0.442,0.238-0.442,0.546v1.789c0,0.305,0.193,0.545,0.442,0.545C10.352,41.848,10.545,41.607,10.545,41.303z
	 M12.017,41.303v-1.789c0-0.308-0.194-0.546-0.443-0.546c-0.249,0-0.444,0.238-0.444,0.546v1.789c0,0.305,0.195,0.545,0.444,0.545
	C11.823,41.848,12.017,41.607,12.017,41.303z M10.545,36.149v-1.787c0-0.309-0.192-0.547-0.441-0.547
	c-0.25,0-0.442,0.238-0.442,0.547v1.787c0,0.307,0.193,0.545,0.442,0.545c0.129,0,0.25-0.065,0.335-0.181
	C10.508,36.413,10.545,36.284,10.545,36.149z M12.017,36.149v-1.787c0-0.309-0.194-0.547-0.443-0.547
	c-0.249,0-0.444,0.238-0.444,0.547v1.787c0,0.307,0.195,0.545,0.444,0.545c0.129,0,0.252-0.065,0.333-0.181
	C11.978,36.413,12.017,36.284,12.017,36.149z M6.13,45.718v-1.791c0-0.303-0.194-0.545-0.442-0.545c-0.25,0-0.445,0.242-0.445,0.545
	v1.791c0,0.307,0.195,0.545,0.445,0.545C5.937,46.263,6.13,46.024,6.13,45.718z M7.602,45.718v-1.791
	c0-0.301-0.199-0.545-0.444-0.545c-0.247,0-0.442,0.242-0.442,0.545v1.791c0,0.307,0.196,0.545,0.442,0.545
	C7.403,46.263,7.602,46.019,7.602,45.718z M6.13,41.303v-1.789c0-0.308-0.194-0.546-0.442-0.546c-0.25,0-0.445,0.238-0.445,0.546
	v1.789c0,0.305,0.195,0.545,0.445,0.545C5.937,41.848,6.13,41.607,6.13,41.303z M7.602,41.303v-1.789
	c0-0.303-0.199-0.546-0.444-0.546c-0.247,0-0.442,0.238-0.442,0.546v1.789c0,0.305,0.196,0.545,0.442,0.545
	C7.403,41.848,7.602,41.603,7.602,41.303z M6.13,36.149v-1.787c0-0.309-0.194-0.547-0.442-0.547c-0.25,0-0.445,0.238-0.445,0.547
	v1.787c0,0.307,0.195,0.545,0.445,0.545c0.128,0,0.248-0.065,0.331-0.181C6.091,36.413,6.13,36.284,6.13,36.149z M7.602,36.149
	v-1.787c0-0.303-0.199-0.547-0.444-0.547c-0.247,0-0.442,0.238-0.442,0.547v1.787c0,0.307,0.196,0.545,0.442,0.545
	c0.128,0,0.25-0.065,0.333-0.181C7.562,36.413,7.602,36.284,7.602,36.149z M38.272,45.592v-1.788c0-0.309-0.194-0.546-0.446-0.546
	c-0.249,0-0.443,0.237-0.443,0.546v1.788c0,0.31,0.195,0.55,0.443,0.55C38.078,46.142,38.272,45.901,38.272,45.592z M38.272,41.179
	v-1.79c0-0.306-0.194-0.55-0.446-0.55c-0.249,0-0.443,0.244-0.443,0.55v1.79c0,0.306,0.195,0.549,0.443,0.549
	C38.078,41.728,38.272,41.484,38.272,41.179z M38.272,36.025v-1.789c0-0.306-0.194-0.548-0.446-0.548
	c-0.249,0-0.443,0.242-0.443,0.548v1.789c0,0.307,0.195,0.546,0.443,0.546C38.078,36.571,38.272,36.332,38.272,36.025z
	 M40.848,45.592v-1.788c0-0.309-0.195-0.546-0.446-0.546c-0.248,0-0.444,0.237-0.444,0.546v1.788c0,0.31,0.196,0.55,0.444,0.55
	C40.652,46.142,40.848,45.901,40.848,45.592z M40.848,41.179v-1.79c0-0.306-0.195-0.55-0.446-0.55c-0.248,0-0.444,0.244-0.444,0.55
	v1.79c0,0.306,0.196,0.549,0.444,0.549C40.652,41.728,40.848,41.484,40.848,41.179z M40.848,36.025v-1.789
	c0-0.306-0.195-0.548-0.446-0.548c-0.248,0-0.444,0.242-0.444,0.548v1.789c0,0.307,0.196,0.546,0.444,0.546
	C40.652,36.571,40.848,36.332,40.848,36.025z M34.959,45.656v-1.791c0-0.305-0.195-0.545-0.445-0.545
	c-0.246,0-0.443,0.24-0.443,0.545v1.791c0,0.305,0.197,0.548,0.443,0.548C34.764,46.204,34.959,45.961,34.959,45.656z
	 M34.959,41.237v-1.789c0-0.305-0.195-0.544-0.445-0.544c-0.246,0-0.443,0.239-0.443,0.544v1.789c0,0.312,0.197,0.549,0.443,0.549
	C34.764,41.786,34.959,41.549,34.959,41.237z M4.407,32.747c-0.019,0.365-0.214,0.611-0.391,0.611H3.067
	c-0.182,0-0.386-0.271-0.386-0.664c0-0.396,0.204-0.668,0.386-0.668h0.949c0.179,0,0.378,0.254,0.391,0.63V32.747z M4.401,34.519
	c-0.037,0.325-0.22,0.545-0.384,0.545H3.067c-0.512,0-0.512-1.336,0-1.336h0.949c0.166,0,0.349,0.218,0.386,0.549L4.401,34.519z
	 M4.395,36.276c-0.049,0.301-0.222,0.501-0.378,0.501H3.067c-0.182,0-0.386-0.274-0.386-0.669c0-0.392,0.204-0.665,0.386-0.665
	h0.949c0.159,0,0.334,0.199,0.38,0.502L4.395,36.276z M4.389,38.016c-0.056,0.278-0.222,0.462-0.373,0.462H3.067
	c-0.182,0-0.386-0.274-0.386-0.665c0-0.394,0.204-0.667,0.386-0.667h0.949c0.151,0,0.318,0.182,0.374,0.465L4.389,38.016z
	 M4.384,39.586c-0.017,0.336-0.193,0.619-0.389,0.619H3.046c-0.185,0-0.39-0.274-0.39-0.666c0-0.396,0.205-0.672,0.39-0.672h0.949
	c0.195,0,0.372,0.287,0.389,0.621V39.586z M4.376,41.349c-0.033,0.309-0.198,0.557-0.381,0.557H3.046
	c-0.185,0-0.39-0.274-0.39-0.668c0-0.391,0.205-0.663,0.39-0.663h0.949c0.185,0,0.351,0.251,0.382,0.554L4.376,41.349z
	 M4.351,46.401c0,0.188-0.052,0.371-0.136,0.499c-0.042,0.064-0.127,0.17-0.243,0.17H3.043c-0.176,0-0.375-0.275-0.375-0.669
	c0-0.39,0.199-0.668,0.375-0.668h0.928c0.083,0,0.173,0.063,0.243,0.168C4.299,46.034,4.351,46.218,4.351,46.401z M4.351,47.915
	c0,0.125-0.046,0.242-0.123,0.329c-0.073,0.08-0.17,0.125-0.271,0.125H3.01c-0.213,0-0.388-0.204-0.388-0.454
	c0-0.249,0.175-0.455,0.388-0.455h0.947c0.101,0,0.198,0.043,0.271,0.123C4.305,47.67,4.351,47.79,4.351,47.915z M4.371,43.018
	c-0.016,0.362-0.209,0.611-0.381,0.611H3.053c-0.183,0-0.385-0.273-0.385-0.665c0-0.394,0.202-0.668,0.385-0.668H3.99
	c0.17,0,0.364,0.249,0.381,0.612V43.018z M4.739,44.663c0-0.047,0-0.095-0.005-0.143l0.005-1.477v-0.026v-0.109l0.007-1.513
	c0.004-0.053,0.006-0.104,0.006-0.158c0-0.052-0.002-0.102-0.006-0.151l0.004-1.459l0.002-0.088l0-0.084l0.004-1.405
	c0.013-0.075,0.018-0.154,0.018-0.237c0-0.079-0.005-0.156-0.017-0.23l0.004-1.276c0.008-0.064,0.012-0.129,0.012-0.197
	c0-0.065-0.003-0.129-0.011-0.189l0.005-1.37c0.005-0.05,0.006-0.099,0.006-0.152c0-0.048-0.001-0.099-0.006-0.144l0.005-1.481
	l0.001-0.024v-0.108l0.004-0.835l3.5,0.024l-0.089,15.05H4.727l0.007-2.063C4.739,44.766,4.739,44.717,4.739,44.663z M4.365,44.788
	c-0.037,0.329-0.216,0.544-0.375,0.544H3.053c-0.183,0-0.385-0.268-0.385-0.669c0-0.392,0.202-0.664,0.385-0.664H3.99
	c0.117,0,0.206,0.102,0.246,0.165c0.067,0.104,0.115,0.235,0.13,0.38L4.365,44.788z M4.384,31.406c0,0.037-0.043,0.092-0.115,0.134
	c-0.101,0.063-0.247,0.096-0.399,0.096H3.301c-0.309,0-0.513-0.138-0.513-0.229c0-0.091,0.204-0.228,0.513-0.228H3.87
	c0.153,0,0.298,0.031,0.399,0.091C4.34,31.31,4.384,31.363,4.384,31.406z M19.862,32.694c0,0.394-0.206,0.664-0.387,0.664h-0.951
	c-0.156,0-0.326-0.199-0.373-0.506l0-0.33c0.05-0.303,0.218-0.496,0.373-0.496h0.951C19.656,32.026,19.862,32.298,19.862,32.694z
	 M19.862,34.396c0,0.393-0.206,0.667-0.387,0.667h-0.951c-0.162,0-0.341-0.219-0.378-0.542l0.001-0.266
	c0.041-0.319,0.218-0.528,0.377-0.528h0.951C19.656,33.728,19.862,34,19.862,34.396z M19.862,36.108
	c0,0.395-0.206,0.669-0.387,0.669h-0.951c-0.17,0-0.361-0.243-0.384-0.598v-0.146c0.024-0.353,0.214-0.591,0.384-0.591h0.951
	C19.656,35.443,19.862,35.717,19.862,36.108z M19.862,37.813c0,0.391-0.206,0.665-0.387,0.665h-0.951
	c-0.181,0-0.387-0.274-0.387-0.665c0-0.394,0.206-0.667,0.387-0.667h0.951C19.656,37.146,19.862,37.419,19.862,37.813z
	 M19.839,39.539c0,0.392-0.205,0.666-0.385,0.666h-0.952c-0.175,0-0.331-0.225-0.374-0.511l0-0.322
	c0.045-0.283,0.199-0.505,0.373-0.505h0.952C19.634,38.867,19.839,39.144,19.839,39.539z M17.757,41.071
	c-0.006,0.054-0.01,0.109-0.01,0.166c0,0.054,0.003,0.103,0.008,0.153l-0.019,5.487h-4.089l0.087-15.013l4.052,0.027l-0.002,0.59
	c-0.01,0.067-0.014,0.139-0.014,0.212c0,0.064,0.004,0.129,0.013,0.192l-0.004,1.349c-0.006,0.053-0.009,0.106-0.009,0.161
	c0,0.05,0.004,0.099,0.008,0.147l-0.004,1.457l-0.001,0.024l-0.003,0.083l0.003,0.076l-0.011,3.142
	c-0.009,0.069-0.016,0.14-0.016,0.212c0,0.068,0.006,0.132,0.014,0.195L17.757,41.071z M19.839,41.237
	c0,0.356-0.183,0.668-0.385,0.668h-0.952c-0.187,0-0.348-0.246-0.38-0.557l0.002-0.226v-0.016c0.038-0.296,0.197-0.532,0.378-0.532
	h0.952C19.656,40.574,19.839,40.887,19.839,41.237z M19.805,46.401c0,0.393-0.197,0.669-0.374,0.669h-0.93
	c-0.09,0-0.184-0.069-0.257-0.189v-0.003h-0.002c-0.071-0.118-0.119-0.282-0.119-0.476c0-0.39,0.199-0.668,0.378-0.668h0.93
	C19.608,45.733,19.805,46.012,19.805,46.401z M17.735,47.719c-0.016,0.063-0.024,0.13-0.024,0.196c0,0.066,0.009,0.129,0.023,0.188
	l-0.001,0.325l-13.011,0.09l0.003-0.906h13.011V47.719z M19.805,47.915c0,0.25-0.173,0.454-0.39,0.454h-0.948
	c-0.172,0-0.317-0.134-0.368-0.317l0.001-0.277c0.016-0.063,0.045-0.117,0.08-0.162h0.064v-0.068
	c0.063-0.053,0.139-0.084,0.222-0.084h0.948C19.632,47.46,19.805,47.666,19.805,47.915z M19.828,42.964
	c0,0.392-0.202,0.665-0.381,0.665h-0.939c-0.181,0-0.384-0.273-0.384-0.665c0-0.394,0.203-0.668,0.384-0.668h0.939
	C19.626,42.296,19.828,42.57,19.828,42.964z M19.828,44.663c0,0.401-0.202,0.669-0.381,0.669h-0.939
	c-0.181,0-0.384-0.268-0.384-0.669c0-0.392,0.203-0.664,0.384-0.664h0.939c0.118,0,0.205,0.102,0.245,0.165
	C19.78,44.294,19.828,44.478,19.828,44.663z M17.791,30.908l0,0.615L4.78,31.435l0.002-0.495L17.791,30.908z M19.839,31.406
	c0,0.092-0.205,0.229-0.51,0.229h-0.571c-0.309,0-0.513-0.138-0.513-0.229c0-0.091,0.204-0.228,0.513-0.228h0.571
	C19.634,31.179,19.839,31.315,19.839,31.406z M34.959,36.085v-1.787c0-0.307-0.195-0.548-0.445-0.548
	c-0.246,0-0.443,0.241-0.443,0.548v1.787c0,0.308,0.197,0.552,0.443,0.552C34.764,36.637,34.959,36.393,34.959,36.085z
	 M32.903,29.634c0.064,0.017,0.129,0.029,0.2,0.029c0.071,0,0.141-0.013,0.206-0.029h1.479l0.001-0.271l0.015-1.047
	c-0.029-0.556-0.417-1.578-1.691-1.589c-1.263-0.014-1.651,0.826-1.679,1.275c0,0.014-0.03,1.351-0.03,1.351l-0.006,0.28H32.903z
	 M33.817,28.987v-0.858c0-0.377-0.32-0.683-0.713-0.683c-0.392,0-0.71,0.306-0.71,0.683v0.858c0,0.033,0.004,0.064,0.009,0.095
	h-0.445l0.022-1.056c0.005-0.062,0.094-0.764,1.127-0.754c1.079,0.01,1.146,1.008,1.146,1.05l-0.008,0.758l-0.435,0.002
	C33.813,29.052,33.817,29.021,33.817,28.987z M23.334,29.634c0.064,0.017,0.13,0.029,0.201,0.029c0.071,0,0.142-0.013,0.206-0.029
	h1.478l0.015-1.318c-0.028-0.556-0.418-1.578-1.69-1.589c-1.264-0.014-1.652,0.83-1.68,1.279l-0.036,1.628H23.334z M24.248,28.987
	v-0.858c0-0.377-0.318-0.683-0.712-0.683c-0.392,0-0.709,0.306-0.709,0.683v0.858c0,0.033,0.003,0.064,0.008,0.095l-0.441,0.003
	l0.019-1.059c0.004-0.066,0.094-0.764,1.126-0.754c1.081,0.01,1.145,1.008,1.146,1.05l-0.008,0.76h-0.436
	C24.246,29.052,24.248,29.021,24.248,28.987z M42.685,23.198l-0.016-1.388h2.104l-0.041-0.002c0.119,0.016,2.907,0.415,5.259,0.323
	c2.335-0.09,4.791-0.366,4.816-0.369l-0.045,0.003l2.195,0.077l0.013,1.313L42.685,23.198z M49.92,1.851
	c0,0.127-0.102,0.227-0.234,0.227c-0.121,0-0.224-0.102-0.224-0.227s0.103-0.227,0.224-0.227C49.819,1.624,49.92,1.724,49.92,1.851z
	 M52.419,14.493l0.164-1.042l1.997,0.941l0.009,1.183l-2.085-1.039L52.419,14.493z M48.57,23.769
	c-0.769,0.441-1.285,1.22-1.285,2.106v2.444h-0.238v-4.546L48.57,23.769z M52.76,28.336v-2.461c0-0.893-0.515-1.674-1.294-2.114
	l1.717-0.006v4.583L52.76,28.336z M47.842,14.564l-0.165-1.048c0.92,0.124,2.879,0.313,4.314-0.084l-0.187,1.174
	C50.271,14.824,48.559,14.656,47.842,14.564z M47.083,13.515l0.166,1.056l-2.217,1.187l-0.007-1.394L47.083,13.515z M51.701,28.333
	v-2.001c0-1.093-0.701-1.983-1.563-1.983c-0.861,0-1.563,0.891-1.563,1.983v1.992l-0.697-0.002v-2.447
	c0-1.048,0.963-1.902,2.145-1.902c1.185,0,2.146,0.854,2.146,1.902v2.46L51.701,28.333z M45.851,28.315v-2.022
	c0-1.186-0.495-2.082-1.15-2.082c-0.649,0-1.143,0.896-1.143,2.082v2.017l-0.839-0.003l-0.031-4.521l3.769-0.01v4.542L45.851,28.315
	z M56.354,28.348V26.25c0-1.188-0.49-2.085-1.142-2.085c-0.655,0-1.147,0.896-1.147,2.085v2.09h-0.29v-4.587l3.198-0.01l0.03,4.606
	L56.354,28.348z M50.872,21.504v-4.674c0-0.685-0.386-1.221-0.874-1.221c-0.485,0-0.871,0.536-0.871,1.221v4.73
	c-0.403-0.002-0.813-0.017-1.208-0.038L47.88,15.16c0.786,0.099,2.4,0.243,3.914,0.04l-0.038,6.248L50.872,21.504z M46.77,21.448
	v-3.681c0-0.392-0.066-1.052-0.5-1.052c-0.438,0-0.502,0.66-0.502,1.052v3.582c-0.293-0.033-0.535-0.065-0.7-0.086l-0.033-4.84
	l2.253-1.206l0.043,6.271L46.77,21.448z M54.052,21.253v-3.67c0-0.394-0.067-1.052-0.502-1.052c-0.144,0-0.335,0.075-0.433,0.438
	c-0.046,0.167-0.072,0.385-0.072,0.614v3.768c-0.221,0.02-0.455,0.035-0.7,0.055l0.041-6.269l2.21,1.101l0.063,4.952L54.052,21.253z
	 M52.357,37.073h-0.646l-0.041-3.985c0-0.971-0.705-1.764-1.564-1.764c-0.863,0-1.563,0.793-1.563,1.764l-0.02,3.985h-0.607v-3.858
	c0-0.754,0.236-1.463,0.667-1.994c0.416-0.516,0.971-0.8,1.555-0.8c1.224,0,2.219,1.252,2.219,2.794V37.073z M58.1,29.785H41.898
	l-0.337-0.489l0.921-0.401l14.774,0.044l1.182,0.359L58.1,29.785z M46.652,37.073l0.016-6.697h2.185
	c-0.225,0.149-0.433,0.342-0.617,0.57c-0.493,0.606-0.762,1.411-0.762,2.269v3.858H46.652z M53.549,38.933l-0.002,0.59h-6.899
	l0.001-0.59H53.549z M53.552,37.662L53.55,38.34H46.65l0.001-0.678H53.552z M53.571,30.376l-0.019,6.697h-0.756v-3.858
	c0-1.223-0.556-2.289-1.378-2.839H53.571z M51.922,48.308l-0.649-0.004l-0.027-1.972c0-0.568-0.517-1.036-1.148-1.036
	c-0.63,0-1.146,0.468-1.146,1.041l-0.014,1.952l-0.587-0.004v-1.935c0-0.774,0.803-1.41,1.788-1.41c0.983,0,1.784,0.637,1.784,1.41
	V48.308z M46.045,43.193c-1.033,0.17-1.697,0.684-2.093,1.131l0.031-13.948h2.1L46.045,43.193z M56.173,44.271
	c-0.385-0.454-1.028-0.968-2.026-1.118l-0.02,0.132l0.034-12.909h2.058L56.173,44.271z M53.536,43.18
	c-0.068-0.013-0.142-0.021-0.217-0.023c-0.178,0-0.349,0.039-0.5,0.11v-1.815c0-0.527-0.316-1.007-0.828-1.343h1.555L53.536,43.18z
	 M53.952,44.703c-0.003,0.287-0.294,0.515-0.651,0.515c-0.361-0.006-0.646-0.241-0.646-0.525c0,0.005,0.01-0.652,0.01-0.652
	c0-0.149,0.077-0.256,0.137-0.323c0.129-0.119,0.313-0.192,0.515-0.188c0.357,0,0.644,0.235,0.644,0.521L53.952,44.703z
	 M47.497,43.256c-0.171-0.118-0.389-0.188-0.622-0.191c-0.081,0-0.16,0.009-0.237,0.024l0.008-2.979h1.687
	c-0.514,0.336-0.835,0.815-0.835,1.343V43.256z M47.508,44.614c0,0.151-0.078,0.251-0.143,0.321
	c-0.125,0.123-0.309,0.191-0.508,0.188c-0.357,0-0.646-0.231-0.643-0.522c0,0.005,0.006-0.654,0.006-0.654
	c0.003-0.18,0.125-0.34,0.303-0.432l0.114,0.002v-0.046c0.073-0.023,0.152-0.035,0.236-0.035c0.353,0.006,0.646,0.241,0.645,0.522
	C47.518,43.953,47.508,44.614,47.508,44.614z M53.777,48.321v-2.842c0.321-0.149,0.54-0.439,0.544-0.774l0.004-0.655
	c0.002-0.195-0.068-0.38-0.196-0.527c1.182,0.188,1.791,0.956,2.042,1.375l-0.012,3.438L53.777,48.321z M46.542,45.443v2.831
	l-2.6-0.017l0.008-3.325c0.254-0.396,0.854-1.109,1.997-1.347c-0.057,0.109-0.091,0.232-0.092,0.358l-0.01,0.656
	C45.84,44.994,46.135,45.327,46.542,45.443z M50.584,9.124v3.935c-0.52,0.035-1.055,0.024-1.539-0.004V9.191
	C49.375,9.25,49.951,9.301,50.584,9.124z M50.584,7.65v1.012c-0.652,0.211-1.264,0.131-1.539,0.076v-1.02
	C49.375,7.776,49.951,7.828,50.584,7.65z M50.556,4.839c-0.785,0.37-1.684,0.01-1.695,0.005L48.828,4.83l-0.025-1.048
	c-0.009-0.385,0.458-0.912,0.697-1.138c0.061,0.015,0.123,0.021,0.187,0.021c0.063,0,0.124-0.005,0.182-0.019
	c0.236,0.221,0.724,0.756,0.712,1.135L50.556,4.839z M52.268,9.717l-0.023,3.003l-0.029,0.011c-0.348,0.142-0.756,0.235-1.188,0.287
	V9.241L52.268,9.717z M52.28,8.249l-0.009,0.997l-1.244-0.479V7.767L52.28,8.249z M50.562,5.315l0.25-0.102
	c0.011,0.007,1.312,0.647,1.481,2.202L52.288,7.39l-0.003,0.388l-1.259-0.484C50.995,6.399,50.693,5.619,50.562,5.315z
	 M49.503,5.438c0.191,0.018,0.4,0.018,0.62-0.013c0.087,0.186,0.4,0.917,0.456,1.764c-0.648,0.211-1.253,0.135-1.528,0.079
	C49.089,6.409,49.407,5.652,49.503,5.438z M47.479,7.849l0.004-0.5c0,0.005,0.125-1.237,1.233-1.998l0.094-0.051l0.241,0.063
	C48.909,5.7,48.634,6.448,48.606,7.3L47.479,7.849z M47.465,9.326l0.009-0.987l1.128-0.545v0.98L47.465,9.326z M47.437,12.884
	l0.025-3.067l1.141-0.552v3.756C48.082,12.977,47.659,12.919,47.437,12.884z M56.533,47.002h1.483l0.006,1.345l-1.494-0.009
	L56.533,47.002z M56.538,45.53h1.471l0.005,1.029h-1.479L56.538,45.53z M56.544,44.057h1.457l0.006,1.029H56.54v-0.002l0.113-0.046
	c-0.006-0.016-0.042-0.104-0.112-0.235L56.544,44.057z M56.549,42.584h1.445l0.005,1.032h-1.454L56.549,42.584z M56.553,41.114
	h1.435l0.006,1.029h-1.444L56.553,41.114z M56.559,39.642h1.422l0.005,1.029h-1.432L56.559,39.642z M56.563,38.169h1.409
	l0.006,1.029H56.56L56.563,38.169z M56.567,36.694h1.396l0.006,1.031h-1.405L56.567,36.694z M56.571,35.224h1.386l0.006,1.029
	h-1.394L56.571,35.224z M56.578,33.75h1.373l0.005,1.029h-1.382L56.578,33.75z M57.94,31.837h-1.356l0.005-1.461h1.345L57.94,31.837
	z M56.582,32.277h1.361l0.006,1.031h-1.37L56.582,32.277z M43.612,31.865h-1.581l0.007-1.489h1.578L43.612,31.865z M43.609,33.341
	h-1.585l0.004-1.036h1.583L43.609,33.341z M43.606,34.811h-1.589l0.005-1.03h1.585L43.606,34.811z M43.603,36.283h-1.592
	l0.004-1.031h1.591L43.603,36.283z M43.599,37.753h-1.596l0.004-1.03h1.594L43.599,37.753z M43.595,39.229h-1.599l0.005-1.034h1.598
	L43.595,39.229z M43.591,40.699h-1.602l0.004-1.03h1.6L43.591,40.699z M43.588,42.172h-1.605l0.005-1.031h1.602L43.588,42.172z
	 M41.958,47.028h1.617l-0.003,1.228l-1.62-0.011L41.958,47.028z M41.966,45.559h1.614l-0.002,1.028H41.96L41.966,45.559z
	 M43.583,43.643h-1.608l0.004-1.031h1.606L43.583,43.643z M41.972,44.085h1.611l-0.001,0.74c-0.079,0.133-0.118,0.223-0.124,0.239
	l0.123,0.052v0.001h-1.613L41.972,44.085z M51.41,44.835h0.889c0.064,0.343,0.358,0.623,0.742,0.712v2.768l-0.675-0.005v-1.96
	C52.366,45.726,51.989,45.169,51.41,44.835z M47.848,44.835h1.02c-0.578,0.334-0.958,0.891-0.958,1.516v1.932l-0.63-0.003v-2.865
	c0.132-0.05,0.25-0.123,0.347-0.218C47.732,45.09,47.809,44.964,47.848,44.835z M52.38,43.316h-0.779l-0.03-1.885
	c0-0.576-0.586-1.031-1.333-1.031c-0.742,0-1.323,0.455-1.323,1.037l-0.018,1.879h-0.96v-1.864c0-0.627,0.658-1.165,1.557-1.343
	h1.332c0.899,0.178,1.556,0.716,1.556,1.343V43.316z M47.864,43.761h4.482c-0.032,0.088-0.054,0.181-0.054,0.275l-0.004,0.354
	h-4.407l0.005-0.433C47.886,43.892,47.879,43.823,47.864,43.761z M8.026,26.994c-0.044-0.028-0.093-0.051-0.144-0.065
	c-0.377-0.11-0.815,0.15-0.815,0.15l-5.246,3.302l19.46-0.053l-5.164-3.248c-0.002-0.001-0.44-0.255-0.814-0.151
	c-0.051,0.015-0.099,0.037-0.144,0.065c0.153,0.043,0.32,0.118,0.456,0.242c0.193,0.173,0.292,0.417,0.292,0.706
	c0,0.76-0.532,1.233-1.388,1.233c-0.709,0-1.543-0.433-1.559-1.648c-0.016-0.981,0.628-1.69,1.017-2.027l-2.186-1.804l-2.56,1.819
	c0.389,0.352,1.006,1.055,0.991,2.012c-0.017,1.215-0.851,1.648-1.56,1.648c-0.855,0-1.387-0.474-1.387-1.233
	c0-0.289,0.1-0.533,0.29-0.706C7.703,27.112,7.869,27.037,8.026,26.994z M97.934,30.965l0.045,18.168
	c-18.676-0.134-37.355-0.223-56.031-0.34v0.014h-0.268l-39.688,0.28l0.06-18.141H0.855l-0.969,0.011l6.893-4.345
	c0.027-0.019,0.641-0.386,1.251-0.211c0.334,0.097,0.594,0.328,0.774,0.684l0.219,0.439l-0.489-0.042
	c-0.102-0.009-0.431,0-0.597,0.157c-0.049,0.046-0.115,0.123-0.115,0.303c0,0.456,0.284,0.684,0.841,0.684
	c0.299,0,0.999-0.106,1.014-1.105c0.011-0.938-0.69-1.557-1.4-2.001l3.358-2.395l0.17-0.122l0.164,0.136l1.967,1.622l24.402-0.141
	l2.898,4.172l0.901-0.385l-0.052-6.89l-0.002-0.296h2.394l-0.047-7.064v-0.199l0.187-0.075l2.379-0.968l0.045-5.588
	c0.007-0.06,0.145-1.395,1.347-2.284l-0.028-1.252c-0.014-0.537,0.476-1.109,0.741-1.378c-0.139-0.146-0.227-0.345-0.227-0.563
	c0-0.451,0.367-0.814,0.813-0.814c0.454,0,0.823,0.364,0.823,0.814c0,0.223-0.089,0.423-0.234,0.571
	c0.272,0.273,0.762,0.838,0.75,1.371L51,4.811c0.361,0.204,1.562,0.995,1.729,2.559l0.005,0.012v0.013l-0.046,5.455l2.302,1.085
	l0.168,0.079l0.002,0.184l0.089,6.996l2.021,0.074l0.279,0.01v0.282l0.045,6.861l1.195,0.368l2.844-4.124l24.399,0.14l2.133-1.754
	l3.526,2.509l-0.338,0.225c-0.01,0.006-1.077,0.705-1.061,1.783c0.019,1.022,0.778,1.103,1.016,1.103
	c0.135,0,0.383-0.018,0.572-0.132c0.182-0.107,0.264-0.286,0.264-0.551c0-0.174-0.063-0.257-0.109-0.302
	c-0.168-0.152-0.489-0.165-0.601-0.157l-0.485,0.042l0.218-0.436c0.181-0.361,0.441-0.591,0.774-0.686
	c0.609-0.175,1.223,0.196,1.253,0.21l6.83,4.307H97.934z M90.741,25.56c-0.39,0.349-1.01,1.05-0.992,2.015
	c0.015,1.211,0.849,1.642,1.56,1.642c0.23,0,0.565-0.033,0.854-0.211c0.241-0.145,0.53-0.44,0.53-1.018
	c0-0.286-0.097-0.531-0.289-0.708c-0.133-0.122-0.295-0.195-0.453-0.239c0.042-0.026,0.09-0.048,0.14-0.063
	c0.377-0.11,0.809,0.148,0.815,0.148l5.014,3.162L78.697,30.39l5.159-3.264c0,0,0.437-0.259,0.817-0.148
	c0.048,0.012,0.094,0.034,0.138,0.061c-0.156,0.044-0.319,0.117-0.456,0.243c-0.192,0.177-0.294,0.42-0.294,0.706
	c0,0.759,0.535,1.228,1.392,1.228c0.707,0,1.54-0.431,1.557-1.642c0.016-0.974-0.631-1.688-1.015-2.029l2.197-1.804L90.741,25.56z
	 M58.71,31.623L58.71,31.623h-0.222l0.089,16.679l20.841,0.154l-0.005-0.98l-20.815-0.121l0.002-0.368l1.993,0.009l-0.058-15.361
	L58.71,31.623z M58.486,31.258h0.024v-0.007l20.821,0.123l-0.002-0.427l-0.304-0.001v0.09l-20.542-0.117L58.486,31.258z
	 M41.486,31.566h-0.025v0.008l-2.027,0.011l-0.059,15.369l1.994-0.012v0.365L20.558,47.43l-0.006,0.98l20.862-0.15L41.486,31.566z
	 M41.458,31.21h0.03l0.001-0.337l-20.548,0.12L20.941,30.9l-0.295,0.001l-0.002,0.428l20.815-0.124V31.21z M75.296,29.131
	l-0.011-0.776c0.003-0.089,0.097-1.026,1.146-1.037c1.029-0.005,1.12,0.69,1.128,0.767c0-0.006,0.016,0.587,0.024,1.045H77.14
	c0.004-0.032,0.008-0.064,0.008-0.099v-0.854c0-0.376-0.319-0.684-0.711-0.684c-0.393,0-0.715,0.308-0.715,0.684l0.007,0.953
	L75.296,29.131z"/>
</svg>
